<svg id="图层_1" data-name="图层 1" xmlns="http://www.w3.org/2000/svg" viewBox="0 0 96 96"><defs><style>.cls-1{fill:#ff649c;}.cls-2{fill:#fff;}</style></defs><title>icon_sh</title><rect class="cls-1" width="96" height="96" rx="19.2"/><path class="cls-2" d="M54.48,72.71V69.93a2.77,2.77,0,0,1,2.77-2.77h4.21V65a5.65,5.65,0,0,1-2.77-4.79A5.55,5.55,0,1,1,67,65v2.2h4.22A2.77,2.77,0,0,1,74,69.93v2.78Z"/><path class="cls-2" d="M44,45.64A13.36,13.36,0,1,0,30.69,32.29,13.35,13.35,0,0,0,44,45.64Z"/><rect class="cls-2" x="56.42" y="74.02" width="15.64" height="3.04" rx="1.36"/><path class="cls-2" d="M58.38,53.54a22.83,22.83,0,0,0-5.52-4l-.26-.13-.22-.11a18.14,18.14,0,0,0-8-2h-.62a18.18,18.18,0,0,0-8,2l-.22.11-.25.13a23,23,0,0,0-7.81,6.51c-.52.64-1,1.29-1.47,2l.06.07a28.25,28.25,0,0,0-4,15.07,3.83,3.83,0,0,0,.56,1.9H51.63a22.19,22.19,0,0,1,6.75-21.57ZM40.94,51.9l.93-1.28A1.72,1.72,0,0,1,43.12,50h.34a1.81,1.81,0,0,1,1.25.63l.92,1.28a1.17,1.17,0,0,1,0,1.27l-.06.07a1.73,1.73,0,0,1-1.25.64H42.25A1.78,1.78,0,0,1,41,53.24l-.05-.07A1.17,1.17,0,0,1,40.94,51.9Zm5.22,15.21-2.39,3a.6.6,0,0,1-1,0l-2.4-3A2.11,2.11,0,0,1,40,65.72L41.35,55.4a.92.92,0,0,1,.88-.78h2.09a.91.91,0,0,1,.88.78l1.35,10.32A2.17,2.17,0,0,1,46.16,67.11Z"/></svg>