<?xml version="1.0" encoding="utf-8"?>
<!-- Generator: Adobe Illustrator 23.0.0, SVG Export Plug-In . SVG Version: 6.00 Build 0)  -->
<svg version="1.1" id="图层_1" xmlns="http://www.w3.org/2000/svg" xmlns:xlink="http://www.w3.org/1999/xlink" x="0px" y="0px"
	 viewBox="0 0 96 96" style="enable-background:new 0 0 96 96;" xml:space="preserve">
<style type="text/css">
	.st0{fill:#EA4C89;}
	.st1{fill:url(#SVGID_1_);}
	.st2{clip-path:url(#SVGID_3_);}
	.st3{fill-rule:evenodd;clip-rule:evenodd;fill:url(#SVGID_4_);}
	.st4{fill:#FFFFFF;}
</style>
<title>icon_crsq</title>
<path class="st0" d="M19.2,0h57.6C87.4,0,96,8.6,96,19.2v57.6C96,87.4,87.4,96,76.8,96H19.2C8.6,96,0,87.4,0,76.8V19.2
	C0,8.6,8.6,0,19.2,0z"/>
<linearGradient id="SVGID_1_" gradientUnits="userSpaceOnUse" x1="0" y1="47" x2="96" y2="47" gradientTransform="matrix(1 0 0 -1 0 95)">
	<stop  offset="0" style="stop-color:#FD6569"/>
	<stop  offset="1" style="stop-color:#FB4B50"/>
</linearGradient>
<path class="st1" d="M19.2,0h57.6C87.4,0,96,8.6,96,19.2v57.6C96,87.4,87.4,96,76.8,96H19.2C8.6,96,0,87.4,0,76.8V19.2
	C0,8.6,8.6,0,19.2,0z"/>
<g>
	<defs>
		<path id="SVGID_2_" d="M19.2,0h57.6C87.4,0,96,8.6,96,19.2v57.6C96,87.4,87.4,96,76.8,96H19.2C8.6,96,0,87.4,0,76.8V19.2
			C0,8.6,8.6,0,19.2,0z"/>
	</defs>
	<clipPath id="SVGID_3_">
		<use xlink:href="#SVGID_2_"  style="overflow:visible;"/>
	</clipPath>
	<g class="st2">
		
			<linearGradient id="SVGID_4_" gradientUnits="userSpaceOnUse" x1="26.0928" y1="27.4208" x2="116.2272" y2="27.4208" gradientTransform="matrix(1 0 0 -1 0 95)">
			<stop  offset="0" style="stop-color:#FD6569"/>
			<stop  offset="1" style="stop-color:#FB4B50"/>
		</linearGradient>
		<polygon class="st3" points="67.6,115 26.1,73.4 70.1,20.2 116.2,66.3 		"/>
	</g>
</g>
<path class="st4" d="M69.1,17.3H26.9c-3.2,0-5.8,2.6-5.8,5.8V73c0,3.2,2.6,5.8,5.8,5.8h42.2c3.2,0,5.8-2.6,5.8-5.8V23
	C74.9,19.9,72.3,17.3,69.1,17.3z M31.1,25.5h30.7c1.1,0,1.9,0.9,1.9,1.9c0,1.1-0.9,1.9-1.9,1.9H31.1c-1.1,0-1.9-0.9-1.9-1.9
	C29.1,26.4,30,25.5,31.1,25.5z M31.1,33.9h25c1.1,0,1.9,0.9,1.9,1.9s-0.9,1.9-1.9,1.9h-25c-1.1,0-1.9-0.9-1.9-1.9S30,33.9,31.1,33.9
	z M29.1,45.6c0-1.1,0.9-1.9,1.9-1.9h21.1c1.1,0,1.9,0.9,1.9,1.9c0,1.1-0.9,1.9-1.9,1.9H31.1C30,47.5,29.1,46.7,29.1,45.6z M68.3,72
	c-0.1,0.5-0.5,0.9-1,1H54.2c-0.7-0.2-1.1-0.8-0.9-1.5c0.1-0.5,0.5-0.8,0.9-0.9h13.2C68,70.7,68.4,71.3,68.3,72z M68.6,68.5
	L68.6,68.5c-0.4,0.5-1,0.8-1.7,0.8H54.5c-0.7,0-1.3-0.3-1.7-0.8c-0.5-0.6-0.7-1.3-0.7-2c-0.1-1.4,0.9-2.6,2.4-2.7h2.9
	c0.9-0.1,1.5-0.8,1.4-1.7c0-0.5-0.2-1.1-0.6-1.4c-1.7-1.4-2.5-3.5-2.2-5.7c0.2-2,1.5-3.7,3.3-4.4h0.1c0.1,0,0.1,0,0.2-0.1
	c1.4-0.3,2.9,0.2,4,1.1c2.4,2.3,2.6,6.1,0.3,8.5c0,0,0,0,0,0l-0.1,0.1l-0.1,0.1c-0.1,0.1-0.2,0.2-0.3,0.3c-0.4,0.3-0.7,0.9-0.6,1.4
	c-0.1,0.9,0.6,1.6,1.4,1.7h2.9c0.7,0,1.3,0.3,1.7,0.8C69.5,65.7,69.5,67.4,68.6,68.5L68.6,68.5z"/>
</svg>
