<svg id="图层_1" data-name="图层 1" xmlns="http://www.w3.org/2000/svg" viewBox="0 0 96 96"><defs><style>.cls-1{fill:#fed546;}.cls-2{fill:#fff;}</style></defs><title>icon_sh</title><rect class="cls-1" width="96" height="96" rx="19.2"/><path class="cls-2" d="M43.93,46.88A13.67,13.67,0,1,0,30.26,33.22,13.67,13.67,0,0,0,43.93,46.88Z"/><path class="cls-2" d="M64.62,57.53A9.38,9.38,0,1,0,74,66.91,9.38,9.38,0,0,0,64.62,57.53Zm4.67,10.68H65.94v3.36a1.31,1.31,0,0,1-2.62,0V68.21H60a1.3,1.3,0,0,1-1.3-1.3A1.31,1.31,0,0,1,60,65.59h3.37V62.24a1.31,1.31,0,0,1,2.62,0v3.35h3.35a1.32,1.32,0,0,1,1.31,1.32A1.31,1.31,0,0,1,69.29,68.21Z"/><path class="cls-2" d="M58.89,54.57a23.18,23.18,0,0,0-5.6-4L53,50.42l-.22-.1a18.44,18.44,0,0,0-8.15-2.07H44a18.44,18.44,0,0,0-8.15,2.07l-.22.1-.26.14a23.5,23.5,0,0,0-7.92,6.6c-.52.64-1,1.31-1.48,2l.05.07A28.73,28.73,0,0,0,22,74.51a3.89,3.89,0,0,0,.57,1.94H52.05a22.23,22.23,0,0,1-.61-5.13A22.6,22.6,0,0,1,58.89,54.57ZM41.2,52.91l.95-1.3A1.75,1.75,0,0,1,43.41,51h.34a1.82,1.82,0,0,1,1.27.64l.94,1.3a1.16,1.16,0,0,1,0,1.29l-.06.07a1.72,1.72,0,0,1-1.27.64h-2.1a1.75,1.75,0,0,1-1.27-.64l-.06-.07A1.2,1.2,0,0,1,41.2,52.91Zm5.3,15.42L44.08,71.4a.61.61,0,0,1-1,0l-2.44-3.07a2.15,2.15,0,0,1-.39-1.41l1.36-10.47a.94.94,0,0,1,.89-.78h2.12a.94.94,0,0,1,.9.78l1.36,10.47A2.17,2.17,0,0,1,46.5,68.33Z"/></svg>