<svg id="图层_1" data-name="图层 1" xmlns="http://www.w3.org/2000/svg" viewBox="0 0 96 96"><defs><style>.cls-1{fill:#b793e5;}.cls-2{fill:#fff;}</style></defs><title>icon_sh</title><path class="cls-1" d="M19.2,0H76.8A19.2,19.2,0,0,1,96,19.2V76.8A19.2,19.2,0,0,1,76.8,96H19.2A19.2,19.2,0,0,1,0,76.8V19.2A19.2,19.2,0,0,1,19.2,0Z"/><path class="cls-2" d="M77.33,68.82a.41.41,0,0,1,0,.53l-6.92,6c-.13,0-.39,0-.39-.26V71.7H56.83a1.45,1.45,0,1,1,0-2.88Z"/><path class="cls-2" d="M55.36,65.25a.41.41,0,0,1,0-.53l6.92-6c.13,0,.39,0,.39.26v3.41H75.86a1.45,1.45,0,1,1,0,2.89Z"/><path class="cls-2" d="M23.24,69.69a7.27,7.27,0,0,1-3.81-6.48V25.6a7.35,7.35,0,0,1,7.25-7.41H58.25a7.33,7.33,0,0,1,5.44,2.59h-33a7.75,7.75,0,0,0-7.62,7.79V67.84A6.75,6.75,0,0,0,23.24,69.69Z"/><path class="cls-2" d="M67.6,26H36.05a7.43,7.43,0,0,0-7.36,7.51V70.68a7.43,7.43,0,0,0,7.36,7.51H56a15.65,15.65,0,0,1-4.17-10.67A15.4,15.4,0,0,1,67.06,52,15,15,0,0,1,75,54.22V33.46A7.43,7.43,0,0,0,67.6,26ZM46.71,34.84a3.33,3.33,0,1,1,1.36,6.39,3.23,3.23,0,0,1-2.35-1,.26.26,0,0,1,0-.33,4.7,4.7,0,0,0,1.1-3,4.62,4.62,0,0,0-.27-1.59A.33.33,0,0,1,46.71,34.84ZM42,32.48a4.39,4.39,0,1,1-4.3,4.39A4.35,4.35,0,0,1,42,32.48Zm-8.4,16.26a7.16,7.16,0,0,1,7.08-7.23H44a6.29,6.29,0,0,1,6.22,6.35v1.35a1.7,1.7,0,0,1-1.68,1.72H35.7A2.17,2.17,0,0,1,33.56,48.74ZM47.26,64h-12a1,1,0,1,1,0-2h12a1,1,0,0,1,0,2Zm2-4.34h-14a1,1,0,0,1,0-2h14a1,1,0,0,1,0,2Zm5.15-10.74a1.57,1.57,0,0,1-1.55,1.59H50.61a.2.2,0,0,1-.16-.31,1.73,1.73,0,0,0,.31-1V47.77a6.58,6.58,0,0,0-3.14-5.64.19.19,0,0,1,.1-.36h.94a5.81,5.81,0,0,1,5.75,5.87Z"/></svg>