<svg id="图层_1" data-name="图层 1" xmlns="http://www.w3.org/2000/svg" viewBox="0 0 96 96"><defs><style>.cls-1{fill:#55a6ff;}.cls-2{fill:#fff;}</style></defs><title>icon_xsjcjl[已恢复]</title><path class="cls-1" d="M19.2,0H76.8A19.2,19.2,0,0,1,96,19.2V76.8A19.2,19.2,0,0,1,76.8,96H19.2A19.2,19.2,0,0,1,0,76.8V19.2A19.2,19.2,0,0,1,19.2,0Z"/><path class="cls-2" d="M76.89,69.26a.46.46,0,0,1,0,.6L69,76.79c-.15,0-.45,0-.45-.3V72.57H53.48a1.66,1.66,0,1,1,0-3.31Z"/><path class="cls-2" d="M51.81,65.15a.46.46,0,0,1,0-.6l7.9-6.92c.15,0,.44,0,.44.3v3.91H75.21a1.66,1.66,0,1,1,0,3.31Z"/><path class="cls-2" d="M63.42,18h-36A8.51,8.51,0,0,0,19,26.62V69.38A8.51,8.51,0,0,0,27.4,78H50.17a18,18,0,0,1-4.76-12.26,17.64,17.64,0,0,1,17.4-17.87,17,17,0,0,1,9,2.6V26.62A8.51,8.51,0,0,0,63.42,18ZM40.2,62.36H26.5a1.15,1.15,0,0,1,0-2.3H40.2a1.15,1.15,0,0,1,0,2.3Zm2.29-5.68h-16a1.15,1.15,0,0,1,0-2.29h16a1.15,1.15,0,0,1,0,2.29Zm7.42-14.1c0,5-8,6.45-9.69,6.45H37.9c-2.31,0-9.69-1.49-9.69-6.45v-6l10.12,4.39a1.83,1.83,0,0,0,.73.15,1.75,1.75,0,0,0,.72-.15l10.13-4.39Zm5.71-9.95-2,.84v6.31a2.42,2.42,0,0,1,0,4.12v2H52v-2a2.42,2.42,0,0,1,0-4.12V34.19L39.37,39.66a.83.83,0,0,1-.62,0l-16.25-7a1.07,1.07,0,0,1,0-1.89l16.25-7a.83.83,0,0,1,.62,0l16.25,7h0a1.08,1.08,0,0,1,0,1.89Z"/></svg>