<svg id="图层_1" data-name="图层 1" xmlns="http://www.w3.org/2000/svg" viewBox="0 0 96 96"><defs><style>.cls-1{fill:#aa91e0;}.cls-2{fill:#fff;}</style></defs><title>icon_sh</title><rect class="cls-1" width="96" height="96" rx="19.2"/><path class="cls-2" d="M66.47,30.22l-2.76-1.59V24.28a.66.66,0,0,0-1.32,0v4.65c0,.25.3.45.5.57a1.34,1.34,0,0,0,.3.21l2.74,1.66a.59.59,0,0,0,.84-.24A.68.68,0,0,0,66.47,30.22Z"/><path class="cls-2" d="M69.1,17.07H26.9a5.8,5.8,0,0,0-5.8,5.8v49.9a5.8,5.8,0,0,0,5.8,5.8H69.1a5.8,5.8,0,0,0,5.8-5.8v-50A5.78,5.78,0,0,0,69.1,17.07ZM52.3,35.89a.71.71,0,0,1,.86-.55l.71.18a.72.72,0,0,1,.51.88.7.7,0,0,1-.69.54.55.55,0,0,1-.18,0c-.42-.12-.66-.17-.67-.17A.71.71,0,0,1,52.3,35.89ZM50.28,48a6.09,6.09,0,0,1-7.8,5.84,14,14,0,0,1-2.11-.89v6.94a3.24,3.24,0,0,1-2,3v5.83a6.67,6.67,0,1,1-13.34,0v-23a1.2,1.2,0,1,1,2.39,0v23a4.28,4.28,0,0,0,8.55,0V62.86a3.24,3.24,0,0,1-2-3V42.09a12.26,12.26,0,0,1,8.57-11.7,6,6,0,0,1,5.79,1.32,6.14,6.14,0,0,1,2,4.52Zm3.77,2.22a.74.74,0,0,1-.52.22.77.77,0,0,1-.49-.19l-.5-.46a.71.71,0,0,1-.08-1,.72.72,0,0,1,1-.08l.55.5A.72.72,0,0,1,54.05,50.18Zm.21-4.28a.75.75,0,0,1-.63.37.64.64,0,0,1-.35-.1l-.6-.33a.71.71,0,0,1-.31-1,.72.72,0,0,1,1-.31l.65.35A.72.72,0,0,1,54.26,45.9ZM54.37,41a.74.74,0,0,1-.69.5.62.62,0,0,1-.23,0l-.64-.2a.72.72,0,0,1,.39-1.39l.71.23A.71.71,0,0,1,54.37,41Zm4.09,14.17a.63.63,0,0,1-.43.15.69.69,0,0,1-.57-.28c-.32-.42-.64-.81-1-1.18a.72.72,0,0,1,.09-1,.72.72,0,0,1,1,.09c.33.39.66.79,1,1.23A.7.7,0,0,1,58.46,55.21Zm.63-6a.7.7,0,0,1-.57.29.76.76,0,0,1-.43-.14L57,48.55a.72.72,0,0,1,.83-1.17c.35.25.73.52,1.11.81A.71.71,0,0,1,59.09,49.19ZM57.63,37.43a.72.72,0,0,1,.92-.44l1.37.52a.72.72,0,0,1-.26,1.39.85.85,0,0,1-.26,0c-.46-.18-.91-.35-1.34-.5A.72.72,0,0,1,57.63,37.43Zm2.06,6.83c-.48-.26-.95-.51-1.4-.73a.72.72,0,1,1,.64-1.28l1.45.74a.73.73,0,0,1,.29,1,.75.75,0,0,1-.64.37A.84.84,0,0,1,59.69,44.26ZM62,60.9a.66.66,0,0,1-.33.09A.72.72,0,0,1,61,60.6c-.24-.45-.48-.89-.73-1.32a.72.72,0,1,1,1.23-.73c.27.45.53.91.77,1.38A.72.72,0,0,1,62,60.9Zm-.51-8.74a.72.72,0,0,1,1-1.06c.34.3.67.62,1,.95a.72.72,0,0,1-.5,1.23.75.75,0,0,1-.51-.21C62.14,52.76,61.82,52.45,61.5,52.16ZM66,41a.69.69,0,0,1-.64.4.77.77,0,0,1-.32-.07l-1.29-.63a.72.72,0,1,1,.61-1.3c.43.2.87.42,1.31.64A.71.71,0,0,1,66,41Zm.24,5.83a.72.72,0,0,1-.45,1.28.73.73,0,0,1-.45-.16c-.41-.33-.83-.64-1.25-.94A.72.72,0,1,1,65,45.87C65.41,46.18,65.85,46.51,66.28,46.86ZM63.37,66.68c-.11-.49-.25-1-.4-1.45a.71.71,0,0,1,.48-.89.7.7,0,0,1,.89.47c.16.51.3,1,.42,1.54a.71.71,0,0,1-.53.86.45.45,0,0,1-.16,0A.72.72,0,0,1,63.37,66.68Zm1.94,5.74a.71.71,0,0,1-.71.67h0a.72.72,0,0,1-.67-.76l0-.68a.71.71,0,0,1,.72-.71h0a.71.71,0,0,1,.7.73Q65.34,72,65.31,72.42Zm1.83-14.79a.75.75,0,0,1-.4.12.74.74,0,0,1-.6-.31c-.24-.36-.5-.72-.77-1.06a.72.72,0,1,1,1.15-.87c.28.36.55.74.81,1.12A.71.71,0,0,1,67.14,57.63Zm2.29,4.69a.51.51,0,0,1-.25,0,.72.72,0,0,1-.67-.47c-.08-.21-.17-.43-.26-.64a.72.72,0,1,1,1.33-.55l.27.68A.72.72,0,0,1,69.43,62.32Zm-.52-19.71a.73.73,0,0,1,1-.23l.74.46a.73.73,0,0,1,.23,1,.75.75,0,0,1-.61.33.69.69,0,0,1-.39-.12l-.73-.45A.74.74,0,0,1,68.91,42.61Zm1.83,9.51a.72.72,0,0,1-1-.06c-.16-.18-.31-.36-.47-.52a.72.72,0,0,1,0-1,.72.72,0,0,1,1,0c.17.17.33.36.49.55A.7.7,0,0,1,70.74,52.12ZM68.66,33.9a8,8,0,1,1,0-11.27A7.91,7.91,0,0,1,68.66,33.9Z"/></svg>