<svg id="图层_1" data-name="图层 1" xmlns="http://www.w3.org/2000/svg" viewBox="0 0 96 96"><defs><style>.cls-1{fill:#788bd9;}.cls-2{fill:#fff;}</style></defs><title>icon_sh</title><rect class="cls-1" width="96" height="96" rx="19.2"/><path class="cls-2" d="M60.44,58.38c-5.91,1.46-3.69,10.06,2,9.1C68.08,66.25,67.33,57.14,60.44,58.38Z"/><path class="cls-2" d="M69.1,17.25H26.9a5.8,5.8,0,0,0-5.8,5.8V73a5.8,5.8,0,0,0,5.8,5.8H69.1A5.8,5.8,0,0,0,74.9,73V23A5.78,5.78,0,0,0,69.1,17.25Zm-.92,18.61a.74.74,0,0,1,1-.24l.74.47a.72.72,0,0,1,.23,1,.76.76,0,0,1-.62.33.67.67,0,0,1-.38-.11l-.73-.46A.72.72,0,0,1,68.18,35.86ZM70,45.37a.72.72,0,0,1-.48.18A.7.7,0,0,1,69,45.3c-.16-.17-.31-.35-.48-.52a.71.71,0,0,1,0-1,.72.72,0,0,1,1,0l.49.55A.72.72,0,0,1,70,45.37Zm-2.1,8.19a.73.73,0,0,1,.94.39l.27.69a.73.73,0,0,1-.42.93.66.66,0,0,1-.25,0,.72.72,0,0,1-.67-.47c-.08-.22-.17-.44-.26-.65A.72.72,0,0,1,67.91,53.56Zm-1.5-2.68A.75.75,0,0,1,66,51a.74.74,0,0,1-.6-.31c-.24-.37-.5-.72-.77-1.07a.71.71,0,0,1,.14-1,.73.73,0,0,1,1,.13c.28.37.55.75.81,1.13A.71.71,0,0,1,66.41,50.88Zm-.74-9.76a.71.71,0,0,1-.57.27.73.73,0,0,1-.45-.16c-.41-.33-.83-.65-1.25-.95a.72.72,0,1,1,.85-1.16c.43.31.87.64,1.3,1A.73.73,0,0,1,65.67,41.12Zm-3-8.1a.71.71,0,0,1,1-.34c.43.2.87.41,1.31.64a.71.71,0,0,1,.33,1,.7.7,0,0,1-.64.4.63.63,0,0,1-.32-.08L63.06,34A.71.71,0,0,1,62.71,33Zm-2,11.37a.72.72,0,0,1,1,0c.34.3.66.62,1,.95a.71.71,0,0,1,0,1,.68.68,0,0,1-.51.22.75.75,0,0,1-.51-.21l-.95-.92A.7.7,0,0,1,60.72,44.39Zm.09,7.4c.27.45.52.91.77,1.38a.72.72,0,0,1-.3,1,.59.59,0,0,1-.33.09.71.71,0,0,1-.64-.38c-.24-.45-.48-.9-.73-1.33a.72.72,0,0,1,1.23-.73Zm-.87-14.57a.75.75,0,0,1-.64.37A.72.72,0,0,1,59,37.5c-.49-.25-1-.5-1.4-.72a.72.72,0,0,1,.64-1.29l1.45.75A.73.73,0,0,1,59.94,37.22Zm-3-6.55a.71.71,0,0,1,.92-.43l1.37.52a.71.71,0,0,1-.26,1.38.82.82,0,0,1-.26,0l-1.34-.51A.72.72,0,0,1,56.9,30.67ZM56.11,40.8a.71.71,0,0,1,1-.17l1.12.8a.73.73,0,0,1,.14,1,.72.72,0,0,1-.57.28.69.69,0,0,1-.43-.14c-.37-.27-.73-.54-1.08-.78A.72.72,0,0,1,56.11,40.8Zm-.25,5.33a.72.72,0,0,1,1,.09c.32.39.66.8,1,1.24a.72.72,0,0,1-.13,1,.68.68,0,0,1-.43.15.69.69,0,0,1-.57-.28c-.32-.42-.64-.81-1-1.18A.74.74,0,0,1,55.86,46.13ZM51.58,33.66a.73.73,0,0,1,.89-.5s.26.07.71.22a.72.72,0,0,1,.46.91.74.74,0,0,1-.69.5.62.62,0,0,1-.23,0c-.4-.14-.63-.2-.64-.2A.73.73,0,0,1,51.58,33.66Zm.06,4.46a.71.71,0,0,1,1-.31l.65.35a.71.71,0,0,1,.27,1,.72.72,0,0,1-1,.28l-.6-.33A.72.72,0,0,1,51.64,38.12Zm-2.09,3.09a6.07,6.07,0,0,1-2,4.51A6,6,0,0,1,41.74,47a12.14,12.14,0,0,1-2.1-.89v7a3.26,3.26,0,0,1-2,3v5.82a6.67,6.67,0,0,1-13.34,0v-23a1.2,1.2,0,1,1,2.39,0v23a4.27,4.27,0,1,0,8.54,0V56.11a3.26,3.26,0,0,1-2-3V35.34a12.29,12.29,0,0,1,8.58-11.71A6,6,0,0,1,47.52,25a6.16,6.16,0,0,1,2,4.53Zm2.18.78a.71.71,0,0,1,1-.08s.2.17.55.5a.71.71,0,1,1-1,1c-.31-.29-.5-.44-.51-.45A.72.72,0,0,1,51.73,42ZM69.29,63.3c.26,1.71,1.72,1.46,2,2.22,0,.48-.25,2.22-1,2.44a8.05,8.05,0,0,0-2.45,0,2.59,2.59,0,0,0-1.24,1c-.48,1.23.48,2.22,0,2.7-.73.48-2.22,1.23-2.7.73-.73-.73-.73-1.72-2.22-1.72-2,0-2,2-3,2S56,71.9,56,71.17c.26-1,.73-1.72-.25-2.7-1.24-1-2.7,0-3.2-.48a2.33,2.33,0,0,1-.73-2.45c.25-.73,2-.73,2-2.7,0-1.46-1.71-1.71-2-2.7a2,2,0,0,1,1-2.22c1.24-.48,2,.48,3.2-.48.73-.73.48-2.44.48-2.95.25-.73,1.24-1,2-1,1.46,0,1,1.71,3,2,2,0,1.72-.74,2.7-2a2.81,2.81,0,0,1,2.45,1c.48,1-.48,2.45,1,3.43,1.24.73,2.45-.25,3.21,0,.48.25.73,1,1,2C71.26,61.33,69,61.08,69.29,63.3Z"/></svg>