<svg id="图层_1" data-name="图层 1" xmlns="http://www.w3.org/2000/svg" viewBox="0 0 96 96"><defs><style>.cls-1{fill:#48c7ff;}.cls-2{fill:none;}.cls-3{fill:#fff;}</style></defs><title>icon_5</title><path class="cls-1" d="M19.2,0H76.8A19.2,19.2,0,0,1,96,19.2V76.8A19.2,19.2,0,0,1,76.8,96H19.2A19.2,19.2,0,0,1,0,76.8V19.2A19.2,19.2,0,0,1,19.2,0Z"/><rect class="cls-2" x="23" y="50.93" width="26" height="26.87"/><path class="cls-3" d="M24.25,68.89a7.29,7.29,0,0,1-3.81-6.48V24.8a7.36,7.36,0,0,1,7.26-7.41H59.27A7.34,7.34,0,0,1,64.71,20h-33a7.75,7.75,0,0,0-7.62,7.78V67A7.14,7.14,0,0,0,24.25,68.89Z"/><path class="cls-3" d="M68.61,25.15H37.06a7.43,7.43,0,0,0-7.35,7.51V69.88a7.43,7.43,0,0,0,7.35,7.51H57a15.67,15.67,0,0,1-4.17-10.67A15.4,15.4,0,0,1,68.08,51.16,14.92,14.92,0,0,1,76,53.42V32.66A7.44,7.44,0,0,0,68.61,25.15ZM47.72,34a3.16,3.16,0,0,1,1.41-.3,3.34,3.34,0,0,1,0,6.68,3.2,3.2,0,0,1-2.35-1,.23.23,0,0,1,0-.32,4.75,4.75,0,0,0,1.1-3,4.62,4.62,0,0,0-.28-1.59A.34.34,0,0,1,47.72,34ZM43,31.68a4.39,4.39,0,1,1-4.3,4.39A4.35,4.35,0,0,1,43,31.68ZM34.57,47.94a7.16,7.16,0,0,1,7.09-7.23H45a6.28,6.28,0,0,1,6.21,6.35v1.35a1.7,1.7,0,0,1-1.68,1.72H36.71A2.17,2.17,0,0,1,34.57,47.94ZM48.28,63.17h-12a1,1,0,0,1,0-2h12a1,1,0,0,1,0,2Zm2-4.34h-14a1,1,0,0,1,0-2h14a1,1,0,0,1,0,2Zm5.14-10.74a1.57,1.57,0,0,1-1.55,1.59H51.62a.2.2,0,0,1-.15-.31,1.83,1.83,0,0,0,.31-1V47a6.57,6.57,0,0,0-3.15-5.64.2.2,0,0,1,.1-.36h1a5.81,5.81,0,0,1,5.74,5.87Z"/><path class="cls-3" d="M74.77,58.32a9.17,9.17,0,1,0,2.7,6.5A9.11,9.11,0,0,0,74.77,58.32ZM68.27,72a7.2,7.2,0,1,1,7.2-7.19A7.19,7.19,0,0,1,68.27,72Z"/><path class="cls-3" d="M72.31,78.92a1.7,1.7,0,0,1-1-.35,1.94,1.94,0,0,1-.7-1.11l-1-4.58,2-.43.81,3.68,1.35-2.2,2.36,1.46L74.79,69.6s0,0,.06.06l1-1.71a1.85,1.85,0,0,1,.86,1.22l1.45,6.62a1.76,1.76,0,0,1-1.27,2.15l-.39.09-2.18-1.34-1.29,2.1-.41.09a1.32,1.32,0,0,1-.34,0"/><path class="cls-3" d="M64.17,78.92a1.32,1.32,0,0,1-.34,0l-.41-.09-1.29-2.1L60,78l-.39-.09a1.77,1.77,0,0,1-1.27-2.15l1.45-6.62A1.92,1.92,0,0,1,60.59,68l1,1.71s.06,0,.06-.06l-1.27,5.79,2.36-1.46,1.35,2.2.81-3.68,2,.43-1,4.58a1.94,1.94,0,0,1-.7,1.11,1.7,1.7,0,0,1-1,.35"/><path class="cls-3" d="M68.27,60.49a4.33,4.33,0,1,0,4.33,4.33A4.34,4.34,0,0,0,68.27,60.49Zm0,6.66a2.33,2.33,0,1,1,2.22-2.33A2.33,2.33,0,0,1,68.27,67.15Z"/></svg>