<svg id="图层_1" data-name="图层 1" xmlns="http://www.w3.org/2000/svg" viewBox="0 0 96 96"><defs><style>.cls-1{fill:#fdaf2a;}.cls-2{fill:#fff;}</style></defs><title>icon_sh</title><rect class="cls-1" width="96" height="96" rx="19.2"/><path class="cls-2" d="M43.84,55.76c-1.07-1.12-2-2.41-4-2.34-3.77.16-7.54.08-11.3,0-1.35,0-2.59.27-2.53,1.7s1.31,1.71,2.63,1.69c2.28-.06,4.58,0,6.88,0v0c2.51,0,5,0,7.53,0,.68,0,1.66-.11.78-1M28.45,43.58a60,60,0,0,1,7.1.05c2.88.31,5-.66,6.88-3.39-4.91,0-9.46,0-14,0-1.25,0-2.42.19-2.37,1.61s1.16,1.74,2.4,1.74m-.68,6.33c1.48,0,3,0,4.43,0s2.68.07,4,0c.67,0,1.8.52,1.84-.88,0-1-.26-2.05-1.41-2.2a36.49,36.49,0,0,0-9.28,0A1.43,1.43,0,0,0,26,48.55a1.64,1.64,0,0,0,1.75,1.34"/><path class="cls-2" d="M75.75,42.59c-1.12-2.53-3.25-1.34-5-1.44s-3.4,1.82-4.83.56a10.76,10.76,0,0,1-2.51-4.53c-.72-2.09-2.41-3.57-3.75-5.76,4.75,1.83,7.61.13,9-2.12a6.38,6.38,0,0,0-1-8,6.53,6.53,0,0,0-7.91-.72c-3.11,2-3.55,4.64-1.45,9.82-3.38-1.06-6.17-2.66-9.14-3.84-1.18-.47-2.31-1.64-3.68-1.06-3.63,1.49-7.27,3-10.81,4.73C32.45,31.3,32,32.81,32.9,34.49c.76,1.38,2.65,1.81,4.52,1,1.6-.7,3.2-1.39,4.74-2.22a6.45,6.45,0,0,1,7.4.35c1.64,1.13,1.41,1.83.2,3-2.74,2.59-5.65,5-7.93,8-1.67,2.23-1.59,4.53.42,6.45,2.46,2.36,5,4.6,7.56,6.93.78.72,1.45,1.45-.36,1.79-2.45.45-4.87,1.11-7.31,1.61-1.77.36-3.24,2-2.93,3.47a3.62,3.62,0,0,0,4.32,2.39C48.36,66.14,53.18,65,58.05,64c2.49-.52,3.64-3,2.15-5S57.31,55.34,56,53.45C52.81,49,52.82,49,56.8,45.11c2.25-2.18,2.22-2.17,3.92.67.74,1.23,1.38,2.74,3.21,2.6a60.06,60.06,0,0,0,10.54-2.14c1.32-.37,1.83-2.35,1.28-3.65M57.6,64.91c-1.74,1.28-4.17.55-6.15,1.68A4.06,4.06,0,0,0,50,67.88c-1.73,2.6-3.31,5.3-5,7.92a2.58,2.58,0,0,0,.65,3.84,2.79,2.79,0,0,0,4.1-.48c3.06-4.13,6-8.35,9-12.55.83-1.17.1-1.55-1.18-1.7"/></svg>