<?xml version="1.0" encoding="utf-8"?>
<!-- Generator: Adobe Illustrator 23.0.0, SVG Export Plug-In . SVG Version: 6.00 Build 0)  -->
<svg version="1.1" id="图层_1" xmlns="http://www.w3.org/2000/svg" xmlns:xlink="http://www.w3.org/1999/xlink" x="0px" y="0px"
	 viewBox="0 0 96 96" style="enable-background:new 0 0 96 96;" xml:space="preserve">
<style type="text/css">
	.st0{fill:none;}
	.st1{fill:url(#SVGID_1_);}
	.st2{clip-path:url(#SVGID_3_);}
	.st3{fill-rule:evenodd;clip-rule:evenodd;fill:url(#SVGID_4_);}
	.st4{fill:url(#SVGID_5_);}
</style>
<title>icon_crsq</title>
<path class="st0" d="M19.2,0h57.6C87.4,0,96,8.6,96,19.2v57.6C96,87.4,87.4,96,76.8,96H19.2C8.6,96,0,87.4,0,76.8V19.2
	C0,8.6,8.6,0,19.2,0z"/>
<linearGradient id="SVGID_1_" gradientUnits="userSpaceOnUse" x1="0" y1="-12" x2="96" y2="-12" gradientTransform="matrix(1 0 0 1 0 60)">
	<stop  offset="0" style="stop-color:#FCBC28"/>
	<stop  offset="0.99" style="stop-color:#FDA92B"/>
</linearGradient>
<path class="st1" d="M19.2,0h57.6C87.4,0,96,8.6,96,19.2v57.6C96,87.4,87.4,96,76.8,96H19.2C8.6,96,0,87.4,0,76.8V19.2
	C0,8.6,8.6,0,19.2,0z"/>
<g>
	<g>
		<defs>
			<path id="SVGID_2_" d="M19.2,0h57.6C87.4,0,96,8.6,96,19.2v57.6C96,87.4,87.4,96,76.8,96H19.2C8.6,96,0,87.4,0,76.8V19.2
				C0,8.6,8.6,0,19.2,0z"/>
		</defs>
		<clipPath id="SVGID_3_">
			<use xlink:href="#SVGID_2_"  style="overflow:visible;"/>
		</clipPath>
		<g class="st2">
			
				<linearGradient id="SVGID_4_" gradientUnits="userSpaceOnUse" x1="23.6" y1="7.8" x2="114.7" y2="7.8" gradientTransform="matrix(1 0 0 1 0 60)">
				<stop  offset="0" style="stop-color:#FCBC28"/>
				<stop  offset="0.99" style="stop-color:#FDA92B"/>
			</linearGradient>
			<polygon class="st3" points="65.1,115.7 23.6,74.1 68.6,19.9 114.7,66 			"/>
		</g>
	</g>
</g>
<linearGradient id="SVGID_5_" gradientUnits="userSpaceOnUse" x1="21.1" y1="-11.95" x2="74.875" y2="-11.95" gradientTransform="matrix(1 0 0 1 0 60)">
	<stop  offset="0" style="stop-color:#FFFFFF"/>
	<stop  offset="1" style="stop-color:#FFFFFF"/>
</linearGradient>
<path class="st4" d="M74.8,20.3c0-0.1-0.1-0.2-0.1-0.3c0-0.2-0.1-0.3-0.2-0.5c0-0.1-0.1-0.2-0.2-0.3c-0.1-0.1-0.1-0.3-0.2-0.4
	s-0.2-0.2-0.2-0.3c-0.1-0.1-0.2-0.2-0.3-0.3c-0.1-0.1-0.2-0.2-0.3-0.2c-0.1-0.1-0.2-0.2-0.3-0.3c-0.1-0.1-0.2-0.1-0.3-0.2
	c-0.1-0.1-0.2-0.2-0.4-0.2c-0.1-0.1-0.2-0.1-0.3-0.1c-0.1-0.1-0.3-0.1-0.4-0.1s-0.3,0-0.4,0s-0.3,0-0.4,0H25.2c-0.1,0-0.3,0-0.4,0
	s-0.3,0-0.4,0s-0.3,0.1-0.4,0.1s-0.2,0.1-0.3,0.1c-0.1,0-0.3,0.1-0.4,0.2s-0.2,0.1-0.3,0.2c-0.1,0.1-0.2,0.2-0.3,0.3
	c-0.1,0.1-0.2,0.1-0.3,0.2c-0.1,0.1-0.2,0.2-0.3,0.3c-0.1,0.1-0.2,0.2-0.2,0.3s-0.1,0.3-0.2,0.4s-0.1,0.2-0.2,0.3
	c-0.1,0.2-0.1,0.3-0.2,0.5c0,0.1-0.1,0.2-0.1,0.3c-0.1,0.3-0.1,0.6-0.1,0.8v53.8c0,2.3,1.8,4.1,4.1,4.1h45.5c2.3,0,4.1-1.9,4.1-4.1
	V21.1C74.9,20.8,74.9,20.6,74.8,20.3z M48,25.7c3.6,0,6.4,2.9,6.4,6.4c0,3.6-2.9,6.4-6.4,6.4s-6.4-2.9-6.4-6.4l0,0
	C41.6,28.5,44.4,25.7,48,25.7z M51.6,70.3H38c-1.9,0-3.4-0.9-3.4-1.9c0-1.1,1.5-1.9,3.4-1.9h13.6c1.9,0,3.4,0.9,3.4,1.9
	C55,69.5,53.5,70.3,51.6,70.3z M55.7,62.8H36.5c-1.1,0-1.9-0.9-1.9-1.9s0.9-1.9,1.9-1.9h19.2c1.1,0,1.9,0.9,1.9,1.9
	S56.8,62.8,55.7,62.8z M62,52.6c-0.3,0.4-0.8,0.6-1.4,0.7H35.3c-0.5,0-1-0.2-1.4-0.7c-0.3-0.4-0.4-1-0.3-1.5
	c1.2-6.6,6.6-11.5,13.2-12.1c2.4,0,4.7,0.4,6.9,1.2c0.4,0.2,0.9,0.4,1.3,0.7c3.8,2.2,6.5,5.9,7.3,10.2C62.5,51.7,62.3,52.2,62,52.6z
	"/>
<image style="overflow:visible;" width="1190" height="562" xlink:href="C:\Users\user\Desktop\QQ图片20200324161034.png"  transform="matrix(1 0 0 1 -510.1158 -612.7053)">
</image>
</svg>
