<svg id="图层_1" data-name="图层 1" xmlns="http://www.w3.org/2000/svg" viewBox="0 0 96 96"><defs><style>.cls-1{fill:#ff649c;}.cls-2{fill:#fff;}</style></defs><title>icon_sh</title><path class="cls-1" d="M19.2,0H76.8A19.2,19.2,0,0,1,96,19.2V76.8A19.2,19.2,0,0,1,76.8,96H19.2A19.2,19.2,0,0,1,0,76.8V19.2A19.2,19.2,0,0,1,19.2,0Z"/><path class="cls-2" d="M68.66,18H26.46a5.8,5.8,0,0,0-5.8,5.8v49.9a5.8,5.8,0,0,0,5.8,5.8h42.2a5.8,5.8,0,0,0,5.8-5.8v-50A5.78,5.78,0,0,0,68.66,18ZM46,28.73a4.8,4.8,0,0,1,2-.43,4.71,4.71,0,1,1-3.44,8,.35.35,0,0,1,0-.47,6.52,6.52,0,0,0,1.58-4.28,6.3,6.3,0,0,0-.39-2.23A.47.47,0,0,1,46,28.73ZM39.17,25.4A6.19,6.19,0,1,1,33,31.59,6.19,6.19,0,0,1,39.17,25.4ZM51.09,49a2.42,2.42,0,0,1-2.42,2.42H30.16a3.08,3.08,0,0,1-3.08-3.08,10.2,10.2,0,0,1,10.2-10.19h4.86a9,9,0,0,1,9,8.94Zm.3,1.35a2.47,2.47,0,0,0,.45-1.42v-2A9.24,9.24,0,0,0,47.32,39a.27.27,0,0,1,.14-.51h1.36a8.27,8.27,0,0,1,8.26,8.28v1.75a2.23,2.23,0,0,1-2.23,2.24H51.61A.27.27,0,0,1,51.39,50.33ZM66.86,73.65H53.76a1.24,1.24,0,0,1,0-2.4H67a1.18,1.18,0,0,1,.9,1.4A1.28,1.28,0,0,1,66.86,73.65Zm1.3-4.5a2.14,2.14,0,0,1-1.7.8H54.06a2.14,2.14,0,0,1-1.7-.8,3.06,3.06,0,0,1-.7-2,2.5,2.5,0,0,1,2.4-2.7H57a1.5,1.5,0,0,0,1.4-1.7,1.82,1.82,0,0,0-.6-1.4,6.18,6.18,0,0,1-2.2-5.7,5.28,5.28,0,0,1,3.3-4.4H59c.1,0,.1,0,.2-.1a4.87,4.87,0,0,1,4,1.1,6,6,0,0,1,.3,8.5l-.1.1-.1.1-.3.3a1.54,1.54,0,0,0-.6,1.4,1.57,1.57,0,0,0,1.4,1.7h2.9a2.14,2.14,0,0,1,1.7.8A3.64,3.64,0,0,1,68.16,69.15Z"/></svg>