<svg id="图层_1" data-name="图层 1" xmlns="http://www.w3.org/2000/svg" xmlns:xlink="http://www.w3.org/1999/xlink" viewBox="0 0 96 96"><defs><style>.cls-1{fill:none;}.cls-2{fill:#fed546;}.cls-3{clip-path:url(#clip-path);}.cls-4{fill:#fff;}</style><clipPath id="clip-path"><rect class="cls-1" x="21" y="21" width="54" height="54"/></clipPath></defs><title>icon_sh</title><rect class="cls-2" width="96" height="96" rx="19.2"/><g class="cls-3"><path class="cls-4" d="M71.91,34.21c1.33-2.1,3-4.71,3-7.61a4.89,4.89,0,0,0-1.2-3.47A4.81,4.81,0,0,0,69,22.06a6.14,6.14,0,0,0-1.89,1V21.89a.87.87,0,0,0-.9-.86H29.81a.88.88,0,0,0-.9.86v1.2a5.72,5.72,0,0,0-1.92-1,4.85,4.85,0,0,0-4.76,1.07A4.77,4.77,0,0,0,21,26.6c0,2.9,1.72,5.51,3,7.61l4.8,7.53a1.18,1.18,0,0,1-.43,1.67s-.09,0-.13.08a.92.92,0,0,1-1.2-.3A.89.89,0,0,1,27.33,42a.85.85,0,0,0,.26-1.2.94.94,0,0,0-1.24-.25,2.76,2.76,0,0,0-1.2,1.67,2.66,2.66,0,0,0,.38,2,2.79,2.79,0,0,0,2.31,1.2,2.74,2.74,0,0,0,1.5-.43c.05,0,.09-.08.13-.08a2,2,0,0,0,.34-.26A19,19,0,0,0,48,57.05,19,19,0,0,0,66.09,44.56c.08.09.21.17.3.26s.08.08.12.08a2.77,2.77,0,0,0,1.5.43,2.64,2.64,0,0,0,.56,0,2.9,2.9,0,0,0,1.76-1.11,2.57,2.57,0,0,0-.82-3.64.89.89,0,0,0-1.24.26.85.85,0,0,0,.26,1.2.82.82,0,0,1,.38.55,1,1,0,0,1-.13.69,1,1,0,0,1-1.2.3s-.08,0-.12-.09A1.21,1.21,0,0,1,67,41.78Zm-43,4.28-3.3-5.18c-1.28-2-2.74-4.28-2.78-6.71a3.2,3.2,0,0,1,.73-2.27,2.92,2.92,0,0,1,2.87-.56,5,5,0,0,1,2.48,1.88Zm38.24-13a5.08,5.08,0,0,1,2.44-1.8,3,3,0,0,1,2.87.56,3.33,3.33,0,0,1,.73,2.26c0,2.44-1.5,4.71-2.78,6.72l-3.26,5.09ZM53.07,62V58.55a21.91,21.91,0,0,1-5.1.6,22.3,22.3,0,0,1-5.1-.6V62H37.74L35.17,74.93H60.69L58.12,62Zm0,0"/></g></svg>