<?xml version="1.0" encoding="utf-8"?>
<!-- Generator: Adobe Illustrator 23.0.0, SVG Export Plug-In . SVG Version: 6.00 Build 0)  -->
<svg version="1.1" id="图层_1" xmlns="http://www.w3.org/2000/svg" xmlns:xlink="http://www.w3.org/1999/xlink" x="0px" y="0px"
	 viewBox="0 0 96 96" style="enable-background:new 0 0 96 96;" xml:space="preserve">
<style type="text/css">
	.st0{fill:#48C7FF;}
	.st1{clip-path:url(#SVGID_2_);}
	.st2{fill:#FFFFFF;}
</style>
<title>icon_rygl</title>
<path class="st0" d="M19.2,0h57.6C87.4,0,96,8.6,96,19.2v57.6C96,87.4,87.4,96,76.8,96H19.2C8.6,96,0,87.4,0,76.8V19.2
	C0,8.6,8.6,0,19.2,0z"/>
<g>
	<defs>
		<rect id="SVGID_1_" x="18.2" y="18.2" width="59.5" height="59.6"/>
	</defs>
	<clipPath id="SVGID_2_">
		<use xlink:href="#SVGID_1_"  style="overflow:visible;"/>
	</clipPath>
	<g class="st1">
		<path class="st2" d="M32.5,33.3c0.2-6.2,5.3-11.1,11.5-10.9C50,22.6,54.8,27.4,55,33.3c0,6-4.9,10.8-10.9,10.7c-0.1,0-0.2,0-0.3,0
			C37.7,44,32.5,39.4,32.5,33.3z M22,70L22,70c0-11.3,8.6-20.6,19.7-21.7L44,48c2.5-0.2,6.1-0.5,8-2.2l0.9-0.6
			c3.6-2.9,5.7-7.3,5.7-11.9c0-8.3-6.8-15.1-15.2-15.1c0,0,0,0,0,0c-7.8,0-14.6,6.8-14.6,15.1c0,4.6,2.1,8.9,5.7,11.8l1.1,0.6
			l-1.1,0.4C24.7,50,18.2,59.4,18.2,69.9c0,3.9,3.1,7.8,7,7.8H44c1.1-0.1,1.9-1,1.8-2.1c-0.1-1-0.9-1.8-1.8-1.8H25.4
			C23.5,73.8,22,71.8,22,70L22,70z M74.1,64.8c-3.2,0.4-5.6,3.1-5.5,6.3c0,0.7,0.2,1.3,0.4,1.9l-2.7,1.5l-1-1.1
			c-1-0.8-2.3-1.2-3.6-1.2c-1.3,0.1-2.5,0.5-3.6,1.2c-0.4,0.4-0.9,0.6-1.1,1.1l-2.5-1.5c0.3-0.6,0.4-1.3,0.4-1.9
			c0-3.2-2.3-5.9-5.5-6.3c0-0.4-0.2-1.3-0.2-2.1c0-0.6,0.2-1.5,0.2-2.1c3.2-0.4,5.6-3.1,5.5-6.3c0-0.7-0.2-1.3-0.4-1.9l2.7-1.4
			c0.3,0.3,0.7,0.6,1.1,0.9c1,0.8,2.1,1.2,3.4,1.3c1.2-0.1,2.4-0.5,3.4-1.3c0.4-0.4,0.9-0.6,1.1-0.9l2.7,1.5
			c-0.3,0.6-0.4,1.3-0.4,1.9c0,3.2,2.4,5.9,5.6,6.3c0,0.4,0.2,1.3,0.2,2.1C74.3,63.4,74.3,64.1,74.1,64.8L74.1,64.8z M75.1,57.6
			h-0.2c-1.8,0-3.3-1.4-3.4-3.3c0,0,0-0.1,0-0.1c0-0.4,0.2-1.1,0.2-1.3c0.4-1.1,0-2.3-0.9-3l-3.8-2.1H66c-0.7,0-1.5,0.3-1.9,0.9
			c-0.7,0.7-1.6,1.3-2.5,1.5c-0.9,0-2.1-1.1-2.7-1.5c-0.5-0.5-1.2-0.8-1.9-0.9c-0.4,0-0.6,0-0.9,0.2l-4,2.1c-0.9,0.7-1.2,1.9-0.9,3
			c0.1,0.4,0.2,0.8,0.2,1.3c0,0.9-0.3,1.8-1,2.4c-0.6,0.6-1.5,1-2.4,1h-0.2c-1,0.1-1.8,0.9-1.9,1.9c-0.2,1-0.4,2.1-0.4,3.2
			c-0.1,1.1,0.1,2.1,0.4,3.2c0.1,1,0.9,1.8,1.9,1.9H48c1.8,0,3.3,1.4,3.4,3.3c0,0,0,0.1,0,0.1c0,0.4-0.2,1.1-0.2,1.2
			c-0.4,1.1,0,2.3,0.9,3l3.8,2.1c0.3-0.2,0.7-0.2,1.1-0.2c0.7,0,1.5-0.3,1.9-0.9c0.4-0.4,1.7-1.7,2.7-1.7c1.1,0.2,2,0.8,2.7,1.7
			c0.5,0.5,1.2,0.9,1.9,0.9c0.4,0,0.7,0,1-0.2l3.8-2.1c0.9-0.7,1.2-1.9,0.9-3c-0.1-0.4-0.2-0.8-0.2-1.3c0-1.8,1.4-3.3,3.3-3.4
			c0,0,0.1,0,0.1,0h0.2c1-0.1,1.8-0.9,1.9-1.9c0.3-1,0.4-2.1,0.4-3.2c-0.3-1-0.5-2-0.6-3C76.9,58.5,76.1,57.7,75.1,57.6L75.1,57.6z
			 M61.7,65.4c-1.5,0-2.7-1.2-2.8-2.7c0-1.5,1.2-2.7,2.7-2.8c1.5,0,2.7,1.2,2.8,2.7c0,0,0,0,0,0C64.4,64.2,63.2,65.4,61.7,65.4z
			 M62.7,57c-3.1-0.6-6.1,1.4-6.8,4.5c-0.2,0.8-0.1,1.6,0,2.4c0.4,2.4,2.3,4.2,4.6,4.7c3.1,0.6,6.1-1.5,6.7-4.6
			c0.1-0.7,0.1-1.4,0-2.1C67,59.5,65.1,57.5,62.7,57L62.7,57z"/>
	</g>
</g>
</svg>
