<svg id="图层_1" data-name="图层 1" xmlns="http://www.w3.org/2000/svg" viewBox="0 0 96 96"><defs><style>.cls-1{fill:#ff9545;}.cls-2{fill:#fff;}</style></defs><title>icon_sh</title><path class="cls-1" d="M19.2,0H76.8A19.2,19.2,0,0,1,96,19.2V76.8A19.2,19.2,0,0,1,76.8,96H19.2A19.2,19.2,0,0,1,0,76.8V19.2A19.2,19.2,0,0,1,19.2,0Z"/><path class="cls-2" d="M67.13,50.52a15,15,0,1,0,15,15A15,15,0,0,0,67.13,50.52ZM75,69.69H65.68l-.12,0a1.63,1.63,0,0,1-1.63-1.63v-9.4a1.63,1.63,0,1,1,3.26,0v7.76H75a1.63,1.63,0,1,1,0,3.25Z"/><path class="cls-2" d="M69.1,17.25H26.9a5.8,5.8,0,0,0-5.8,5.8V73a5.8,5.8,0,0,0,5.8,5.8H53.45a19.58,19.58,0,0,1-4.37-12.38A19.21,19.21,0,0,1,68.08,47a18.44,18.44,0,0,1,6.82,1.31V23A5.78,5.78,0,0,0,69.1,17.25ZM44.59,27.93a4.47,4.47,0,0,1,1.94-.41,4.52,4.52,0,1,1-3.3,7.65.32.32,0,0,1,0-.44,6.33,6.33,0,0,0,1.15-6.25A.44.44,0,0,1,44.59,27.93ZM38,24.74a5.93,5.93,0,1,1-5.93,5.93A5.92,5.92,0,0,1,38,24.74Zm11.42,22.6a2.32,2.32,0,0,1-2.32,2.32H29.4a3,3,0,0,1-2.95-2.95,9.76,9.76,0,0,1,9.77-9.77h4.66a8.58,8.58,0,0,1,8.58,8.58Zm5.75-.43a2.14,2.14,0,0,1-2.14,2.14H50a.26.26,0,0,1-.22-.41,2.32,2.32,0,0,0,.43-1.37V45.39a8.87,8.87,0,0,0-4.33-7.62.26.26,0,0,1,.13-.48h1.3a7.93,7.93,0,0,1,7.93,7.93Zm13.34-6h-8a1,1,0,0,1,0-2h8a1,1,0,0,1,0,2Zm0-3.79h-12a1,1,0,0,1,0-2h12a1,1,0,0,1,0,2Zm0-3.79h-10a1,1,0,0,1,0-2h10a1,1,0,0,1,0,2Z"/></svg>