<?xml version="1.0" encoding="utf-8"?>
<!-- Generator: Adobe Illustrator 23.0.0, SVG Export Plug-In . SVG Version: 6.00 Build 0)  -->
<svg version="1.1" id="图层_1" xmlns="http://www.w3.org/2000/svg" xmlns:xlink="http://www.w3.org/1999/xlink" x="0px" y="0px"
	 viewBox="0 0 96 96" style="enable-background:new 0 0 96 96;" xml:space="preserve">
<style type="text/css">
	.st0{fill:url(#SVGID_1_);}
	.st1{fill:none;}
	.st2{fill:url(#SVGID_2_);}
</style>
<title>icon_crsq</title>
<linearGradient id="SVGID_1_" gradientUnits="userSpaceOnUse" x1="48" y1="95" x2="48" y2="-1" gradientTransform="matrix(1 0 0 -1 0 95)">
	<stop  offset="0" style="stop-color:#48A6F0"/>
	<stop  offset="0.99" style="stop-color:#3A99EC"/>
</linearGradient>
<path class="st0" d="M19.9,0h56.2C87.1,0,96,8.9,96,19.9v56.2c0,11-8.9,19.9-19.9,19.9H19.9C8.9,96,0,87.1,0,76.1V19.9
	C0,8.9,8.9,0,19.9,0z"/>
<rect x="19.1" y="15.2" class="st1" width="57.7" height="65.7"/>
<path class="st1" d="M19.9,0h56.2C87.1,0,96,8.9,96,19.9v56.2c0,11-8.9,19.9-19.9,19.9H19.9C8.9,96,0,87.1,0,76.1V19.9
	C0,8.9,8.9,0,19.9,0z"/>
<linearGradient id="SVGID_2_" gradientUnits="userSpaceOnUse" x1="48" y1="78.5391" x2="48" y2="15.4609" gradientTransform="matrix(1 0 0 -1 0 95)">
	<stop  offset="0" style="stop-color:#FFFFFF"/>
	<stop  offset="1" style="stop-color:#FFFFFF"/>
</linearGradient>
<path class="st2" d="M75.9,49.2V28.4c-0.2-4.2-4-7.5-8.6-7.5h-6.1v-4.4h-3.4v4.4H38.3v-4.4h-3.4v4.4h-6.2c-4.8,0-8.6,3.5-8.6,7.9
	v42.9c0,4.3,3.8,7.9,8.6,7.9h39.3c4.1,0,7.5-3.1,7.8-7.2l0,0c0-0.1,0-0.3,0-0.4c0-0.1,0-0.1,0-0.2V49.4
	C75.9,49.3,75.9,49.2,75.9,49.2z M58.2,57.3H30.4v-2.8h27.9V57.3z M63.8,48.7H30.4v-2.8h33.4V48.7z M65.6,40.1H30.4v-2.8h35.3
	L65.6,40.1z"/>
</svg>
