<?xml version="1.0" encoding="utf-8"?>
<!-- Generator: Adobe Illustrator 23.0.0, SVG Export Plug-In . SVG Version: 6.00 Build 0)  -->
<svg version="1.1" id="图层_1" xmlns="http://www.w3.org/2000/svg" xmlns:xlink="http://www.w3.org/1999/xlink" x="0px" y="0px"
	 viewBox="0 0 96 96" style="enable-background:new 0 0 96 96;" xml:space="preserve">
<style type="text/css">
	.st0{fill:#48C7FF;}
	.st1{fill:#FFFFFF;}
</style>
<title>icon_crsq</title>
<path class="st0" d="M19.9,0h56.2C87.1,0,96,8.9,96,19.9v56.2c0,11-8.9,19.9-19.9,19.9H19.9C8.9,96,0,87.1,0,76.1V19.9
	C0,8.9,8.9,0,19.9,0z"/>
<path class="st1" d="M63,81.2l15.1-15.1h-9.7c-3,0-5.4,2.4-5.4,5.4l0,0V81.2z"/>
<path class="st1" d="M78,20c0-0.1-0.1-0.2-0.1-0.3c0-0.2-0.1-0.3-0.2-0.5c0-0.1-0.1-0.2-0.2-0.3c-0.1-0.1-0.1-0.3-0.2-0.4
	s-0.2-0.2-0.2-0.3c-0.1-0.1-0.2-0.2-0.3-0.3c-0.1-0.1-0.2-0.2-0.3-0.2c-0.1-0.1-0.2-0.2-0.3-0.3c-0.1-0.1-0.2-0.1-0.3-0.2
	c-0.1-0.1-0.3-0.2-0.4-0.2s-0.2-0.1-0.4-0.1c-0.1-0.1-0.3-0.1-0.4-0.1s-0.3,0-0.4,0c-0.2,0-0.3,0-0.5,0H26.4c-0.2,0-0.3,0-0.5,0
	c-0.1,0-0.3,0-0.4,0s-0.3,0.1-0.4,0.1S24.8,17,24.7,17s-0.3,0.2-0.4,0.2c-0.1,0.1-0.2,0.1-0.3,0.2c-0.1,0.1-0.2,0.2-0.4,0.3
	s-0.2,0.2-0.3,0.2s-0.2,0.2-0.3,0.4s-0.2,0.2-0.2,0.3s-0.2,0.3-0.2,0.4c-0.1,0.1-0.1,0.2-0.2,0.3c-0.1,0.2-0.1,0.3-0.2,0.5
	c0,0.1-0.1,0.2-0.1,0.3C22,20.4,22,20.7,22,21v56c0,2.4,1.9,4.3,4.3,4.3h47.4c2.4,0,4.3-1.9,4.3-4.3V21C78.1,20.6,78.1,20.3,78,20z
	 M32.3,21.7h29.6c1.1,0,2,0.9,2,2s-0.9,2-2,2H32.3c-1.1,0-2-0.9-2-2S31.2,21.7,32.3,21.7z M30.3,31.7c0-1.1,0.9-2,2-2h24
	c1.1,0,2,0.9,2,2c0,1.1-0.9,2-2,2h-24C31.2,33.7,30.3,32.8,30.3,31.7L30.3,31.7z M41.7,73.1l-5.8-0.3L35.6,67l23.2-23.2l6.1,6.1
	L41.7,73.1z M69.4,45.3l-3,3.1l-6.1-6.1l3-3c0.8-0.8,2.2-0.8,3,0l3,3C70.2,43.1,70.2,44.5,69.4,45.3L69.4,45.3L69.4,45.3L69.4,45.3z
	"/>
</svg>
