<svg id="图层_1" data-name="图层 1" xmlns="http://www.w3.org/2000/svg" viewBox="0 0 96 96"><defs><style>.cls-1{fill:#fdb128;}.cls-2{fill:#fff;}.cls-3{fill:none;}</style></defs><title>icon_sqqq[已恢复]</title><path class="cls-1" d="M19.2,0H76.8A19.2,19.2,0,0,1,96,19.2V76.8A19.2,19.2,0,0,1,76.8,96H19.2A19.2,19.2,0,0,1,0,76.8V19.2A19.2,19.2,0,0,1,19.2,0Z"/><path class="cls-2" d="M73.57,49.56a1.64,1.64,0,0,0-1.2-.5,1.74,1.74,0,0,0-1.2.5l-3,3,6.44,6.44,2.88-3.24a1.67,1.67,0,0,0,0-2.38Z"/><polygon class="cls-2" points="47.41 73.13 47.41 79.57 53.87 79.57 72.53 60.73 66.09 54.28 47.41 73.13"/><rect class="cls-3" x="18.01" y="18.4" width="59.99" height="61.25"/><path class="cls-2" d="M74.91,24a5.78,5.78,0,0,0-5.8-5.7H26.91a5.8,5.8,0,0,0-5.8,5.8V74a5.8,5.8,0,0,0,5.8,5.8H42.42V71.55h0L74.91,39.06ZM41.48,48h-13a1.5,1.5,0,0,1,0-3h13a1.5,1.5,0,0,1,0,3Zm4-7.88h-17a1.5,1.5,0,1,1,0-3h17a1.5,1.5,0,0,1,0,3Zm10-7.87h-27a1.5,1.5,0,0,1,0-3h27a1.5,1.5,0,0,1,0,3Z"/></svg>