<?xml version="1.0" encoding="utf-8"?>
<!-- Generator: Adobe Illustrator 23.0.0, SVG Export Plug-In . SVG Version: 6.00 Build 0)  -->
<svg version="1.1" id="图层_1" xmlns="http://www.w3.org/2000/svg" xmlns:xlink="http://www.w3.org/1999/xlink" x="0px" y="0px"
	 viewBox="0 0 96 96" style="enable-background:new 0 0 96 96;" xml:space="preserve">
<style type="text/css">
	.st0{fill:#6CDEEA;}
	.st1{fill:#FFFFFF;}
</style>
<title>icon_sh</title>
<path class="st0" d="M19.2,0h57.6C87.4,0,96,8.6,96,19.2v57.6C96,87.4,87.4,96,76.8,96H19.2C8.6,96,0,87.4,0,76.8V19.2
	C0,8.6,8.6,0,19.2,0z"/>
<path class="st1" d="M74.8,45.8H21.2c-1.1,0.1-2,1.1-1.9,2.2c0.1,1,0.9,1.8,1.9,1.9h53.6c1.1-0.1,2-1.1,1.9-2.2
	C76.6,46.7,75.8,45.8,74.8,45.8z"/>
<path class="st1" d="M40.1,68.9h-8.1c-2.6,0-4.7-2.2-4.7-4.8c0,0,0,0,0,0v-7.8c0.1-1.1-0.8-2.1-1.9-2.2c-1.1-0.1-2.1,0.8-2.2,1.9
	c0,0.1,0,0.2,0,0.3v7.9c0,4.8,3.9,8.8,8.7,8.8c0,0,0,0,0,0h8.1c1.1,0,2-0.9,2-2C42.1,69.8,41.2,68.9,40.1,68.9L40.1,68.9z"/>
<path class="st1" d="M70.8,54.2c-1.1,0-2,0.9-2,2c0,0,0,0,0,0v7.9c0,2.6-2.1,4.8-4.7,4.8c0,0,0,0,0,0h-8.1C54.8,69,54,70,54,71.1
	c0.1,1,0.9,1.8,1.9,1.9h8.1c4.8,0,8.7-4,8.7-8.8v-7.9C72.8,55.1,71.9,54.2,70.8,54.2z"/>
<path class="st1" d="M55.9,27.1H64c2.6,0,4.7,2.2,4.7,4.8c0,0,0,0,0,0v7.9c-0.1,1.1,0.8,2.1,1.9,2.2c1.1,0.1,2.1-0.8,2.2-1.9
	c0-0.1,0-0.2,0-0.3v-7.9c0-4.8-3.9-8.8-8.7-8.8h-8.1c-1.1,0.1-2,1.1-1.9,2.2C54,26.2,54.9,27.1,55.9,27.1z"/>
<path class="st1" d="M25.2,41.8c1.1,0,2-0.9,2-2v-7.9c0-2.6,2.1-4.8,4.7-4.8c0,0,0,0,0,0H40c1.1-0.1,2-1.1,1.9-2.2
	c-0.1-1-0.9-1.8-1.9-1.9h-8.1c-4.8,0-8.7,4-8.7,8.8v7.9C23.1,40.8,24,41.7,25.2,41.8C25.1,41.7,25.1,41.7,25.2,41.8L25.2,41.8z"/>
</svg>
